<?xml version="1.0" standalone="no"?>
<!DOCTYPE svg PUBLIC "-//W3C//DTD SVG 20010904//EN"
 "http://www.w3.org/TR/2001/REC-SVG-20010904/DTD/svg10.dtd">
<svg version="1.0" xmlns="http://www.w3.org/2000/svg"
 width="500.000000pt" height="500.000000pt" viewBox="0 0 500.000000 500.000000"
 preserveAspectRatio="xMidYMid meet">

<g transform="translate(0.000000,500.000000) scale(0.100000,-0.100000)"
fill="#000000" stroke="none">
<path d="M50 2520 l0 -380 138 0 c217 0 242 23 242 218 0 107 -1 114 -25 137
l-24 25 25 25 c25 25 26 28 22 150 -3 107 -6 127 -24 152 -35 47 -57 53 -211
53 l-143 0 0 -380z m231 250 c16 -9 19 -22 19 -88 0 -47 -5 -83 -12 -90 -7 -7
-34 -12 -60 -12 l-48 0 0 100 0 100 41 0 c22 0 49 -5 60 -10z m8 -324 c8 -9
11 -43 9 -93 l-3 -78 -57 -3 -58 -3 0 96 0 95 49 0 c29 0 53 -5 60 -14z"/>
<path d="M3192 2523 l3 -378 138 -3 c218 -4 237 13 237 217 0 116 -1 122 -25
142 l-24 22 24 19 c24 19 25 24 25 140 0 202 -18 218 -239 218 l-141 0 2 -377z
m245 243 c5 -4 8 -43 8 -87 0 -92 -5 -99 -77 -99 l-48 0 0 101 0 101 55 -4
c30 -3 58 -8 62 -12z m-8 -315 c19 -12 28 -130 12 -160 -10 -17 -21 -21 -66
-21 l-55 0 0 95 0 95 48 0 c26 0 54 -4 61 -9z"/>
<path d="M537 2804 c-4 -4 -7 -155 -7 -336 l0 -328 163 2 162 3 3 54 c2 37 -1
57 -10 62 -7 5 -55 9 -105 9 l-93 0 -2 268 -3 267 -50 3 c-28 2 -54 0 -58 -4z"/>
<path d="M1104 2802 c-6 -4 -47 -152 -91 -330 -61 -242 -78 -325 -68 -328 7
-3 34 -4 61 -2 l49 3 14 63 14 62 92 0 92 0 14 -62 14 -63 58 -3 c52 -3 57 -1
57 18 0 36 -153 635 -164 642 -6 4 -38 8 -71 8 -33 0 -65 -4 -71 -8z m100
-289 c14 -61 26 -116 26 -122 0 -7 -23 -11 -55 -11 -42 0 -55 4 -55 15 0 21
51 237 55 233 2 -2 15 -53 29 -115z"/>
<path d="M1501 2797 c-8 -11 -11 -100 -9 -333 l3 -319 60 0 60 0 5 95 c5 95
23 151 42 132 5 -5 35 -58 66 -118 l57 -109 54 -3 c29 -2 60 -1 68 2 11 5 -6
46 -75 179 l-91 173 84 149 c46 82 81 153 79 157 -8 13 -109 9 -126 -4 -8 -7
-46 -67 -84 -133 l-69 -120 -5 130 -5 130 -51 3 c-35 2 -55 -2 -63 -11z"/>
<path d="M2005 2798 c-3 -7 -4 -157 -3 -333 l3 -320 188 -3 188 -2 -3 62 -3
63 -122 3 -123 3 0 69 0 69 98 3 97 3 0 55 0 55 -97 3 -98 3 0 74 0 75 125 0
126 0 -3 63 -3 62 -183 3 c-141 2 -184 0 -187 -10z"/>
<path d="M2571 2801 c-18 -5 -45 -21 -60 -35 -25 -26 -26 -29 -26 -158 l0
-132 123 -40 122 -40 0 -56 c0 -31 -5 -61 -12 -68 -7 -7 -31 -12 -55 -12 -46
0 -63 17 -63 64 0 25 -2 26 -60 26 l-60 0 0 -60 c0 -117 42 -150 187 -150 161
0 193 36 193 216 0 85 -3 114 -14 124 -8 6 -66 28 -128 48 -113 37 -113 37
-116 71 -2 19 -1 45 3 58 5 22 10 24 63 21 l57 -3 5 -40 5 -40 60 0 60 0 3 45
c4 67 -17 120 -56 143 -37 22 -174 32 -231 18z"/>
<path d="M3677 2803 c-4 -3 -7 -154 -7 -335 l0 -328 165 0 166 0 -3 63 -3 62
-97 3 -98 3 0 263 c0 231 -2 265 -16 270 -21 8 -99 8 -107 -1z"/>
<path d="M4190 2800 c-19 -4 -47 -22 -62 -39 l-28 -31 0 -253 c0 -278 3 -291
60 -319 44 -23 194 -25 245 -4 67 28 70 42 70 311 0 266 -5 294 -58 322 -36
18 -175 27 -227 13z m160 -139 c6 -12 10 -93 10 -195 0 -145 -3 -177 -16 -190
-18 -19 -94 -22 -112 -4 -13 13 -18 389 -5 401 3 4 30 7 59 7 42 0 55 -4 64
-19z"/>
<path d="M4685 2803 c-45 -10 -75 -26 -92 -52 -16 -23 -18 -54 -21 -256 -4
-254 2 -293 51 -329 23 -17 46 -22 119 -25 114 -4 162 9 188 52 17 28 20 51
20 175 l0 142 -90 0 -91 0 3 -62 c3 -60 4 -63 31 -66 26 -3 27 -6 27 -57 0
-59 -7 -65 -68 -65 -64 0 -63 -4 -60 216 l3 199 60 0 60 0 5 -45 5 -45 55 0
55 0 0 77 c0 70 -2 80 -26 103 -14 15 -43 30 -65 35 -40 10 -133 11 -169 3z"/>
</g>
</svg>
